<?xml version="1.0" encoding="UTF-8"?>
<svg id="Camada_2" data-name="Camada 2" xmlns="http://www.w3.org/2000/svg" version="1.1" viewBox="0 0 910 140">
  <defs>
    <style>
      .cls-1 {
        fill: #fff;
        stroke-width: 0px;
      }
    </style>
  </defs>
  <path class="cls-1" d="M71,32.3c-.6-.7-1.8-1.5-3.5-2.6-1.7-1.1-3.8-2.2-6.3-3.3-2.5-1.1-5.1-2.1-8-2.8-2.9-.8-5.8-1.1-8.8-1.1-5.2,0-9.1,1-11.7,2.9-2.6,1.9-4,4.7-4,8.4s.8,4.9,2.5,6.5c1.7,1.6,4.2,3,7.5,4.1s7.5,2.4,12.5,3.7c6.5,1.6,12.1,3.6,16.9,5.9,4.8,2.3,8.4,5.3,11,9,2.5,3.7,3.8,8.7,3.8,14.9s-1,9.8-2.9,13.6c-1.9,3.8-4.6,6.9-8,9.3-3.4,2.4-7.3,4.1-11.7,5.2-4.4,1.1-9.1,1.6-14,1.6s-9.8-.5-14.7-1.6c-4.9-1-9.6-2.5-14.1-4.5-4.5-1.9-8.7-4.3-12.6-7l8.5-16.9c.8.9,2.3,2,4.4,3.3,2.1,1.4,4.7,2.7,7.8,4.1,3.1,1.4,6.4,2.5,10,3.5,3.6.9,7.3,1.4,11,1.4,5.3,0,9.2-.9,11.8-2.6,2.6-1.7,3.9-4.3,3.9-7.7s-1-5.4-3.1-7.1c-2.1-1.7-5-3.3-8.8-4.5-3.8-1.3-8.3-2.6-13.5-4-6.3-1.8-11.5-3.8-15.6-6.1-4.1-2.3-7.2-5.1-9.3-8.4-2.1-3.3-3.1-7.6-3.1-12.7s1.6-12.7,4.9-17.3c3.2-4.7,7.6-8.2,13.1-10.6,5.5-2.4,11.5-3.6,18.2-3.6s9,.5,13.1,1.6c4.1,1,8,2.4,11.6,4.1,3.6,1.7,6.9,3.6,9.7,5.5l-8.5,15.9Z"/>
  <path class="cls-1" d="M93.7,79.2v-46.2h18.8v42c0,5.6,1,9.9,3.1,12.7,2,2.9,5,4.3,9,4.3s4.8-.5,7.2-1.5c2.4-1,4.5-2.4,6.5-4.4,2-1.9,3.7-4.4,5.1-7.4v-45.7h18.8v52.5c0,2,.3,3.4,1,4.2.6.8,1.8,1.4,3.3,1.5v15.5c-1.9.3-3.4.5-4.7.6-1.3.1-2.4.2-3.4.2-3.2,0-5.9-.8-8-2.4-2.1-1.6-3.4-3.7-3.8-6.3l-.4-5.9c-3.2,5-7.4,8.8-12.4,11.3-5.1,2.6-10.7,3.9-16.9,3.9s-13.2-2.5-17.2-7.4c-3.9-4.9-5.9-12.1-5.9-21.6Z"/>
  <path class="cls-1" d="M223.4,108.1c-5.7,0-10.7-1.3-15-3.9-4.4-2.6-7.7-6.1-10.1-10.4v43.2h-18.5V33h16.3v12.8c2.8-4.3,6.3-7.7,10.6-10.2,4.3-2.5,9.1-3.7,14.6-3.7s9.4,1,13.6,3c4.1,2,7.7,4.7,10.8,8.2,3.1,3.5,5.5,7.6,7.2,12.2s2.5,9.5,2.5,14.6-1.4,13.6-4.1,19.4c-2.7,5.8-6.5,10.4-11.3,13.8-4.8,3.4-10.3,5.1-16.5,5.1ZM217.1,92c2.8,0,5.4-.6,7.7-1.8,2.4-1.2,4.4-2.8,6-4.9,1.7-2,3-4.4,3.9-7.2.9-2.7,1.4-5.6,1.4-8.4s-.5-5.8-1.5-8.4c-1-2.6-2.4-4.9-4.2-6.9-1.9-2-4-3.5-6.5-4.6-2.5-1.1-5.2-1.7-8.1-1.7s-3.4.3-5.2.9c-1.8.6-3.5,1.5-5.2,2.6-1.7,1.1-3.1,2.4-4.3,3.8-1.2,1.4-2.2,3.1-2.9,4.9v17.3c1.2,2.7,2.8,5.1,4.7,7.4,1.9,2.2,4.1,4,6.6,5.2,2.5,1.2,5,1.9,7.6,1.9Z"/>
  <path class="cls-1" d="M310.8,108.1c-5.7,0-10.7-1.3-15-3.9-4.4-2.6-7.7-6.1-10.1-10.4v43.2h-18.5V33h16.3v12.8c2.8-4.3,6.3-7.7,10.6-10.2,4.3-2.5,9.1-3.7,14.6-3.7s9.4,1,13.6,3c4.1,2,7.7,4.7,10.8,8.2,3.1,3.5,5.5,7.6,7.2,12.2s2.5,9.5,2.5,14.6-1.4,13.6-4.1,19.4c-2.7,5.8-6.5,10.4-11.3,13.8-4.8,3.4-10.3,5.1-16.5,5.1ZM304.5,92c2.8,0,5.4-.6,7.7-1.8,2.4-1.2,4.4-2.8,6-4.9,1.7-2,3-4.4,3.9-7.2.9-2.7,1.4-5.6,1.4-8.4s-.5-5.8-1.5-8.4c-1-2.6-2.4-4.9-4.2-6.9-1.9-2-4-3.5-6.5-4.6-2.5-1.1-5.2-1.7-8.1-1.7s-3.4.3-5.2.9c-1.8.6-3.5,1.5-5.2,2.6-1.7,1.1-3.1,2.4-4.3,3.8-1.2,1.4-2.2,3.1-2.9,4.9v17.3c1.2,2.7,2.8,5.1,4.7,7.4,1.9,2.2,4.1,4,6.6,5.2,2.5,1.2,5,1.9,7.6,1.9Z"/>
  <path class="cls-1" d="M388.2,108.1c-5.9,0-11.2-1-15.9-3.1-4.7-2.1-8.7-4.9-12-8.4-3.3-3.6-5.9-7.6-7.6-12.2-1.7-4.5-2.6-9.3-2.6-14.4s.9-10.2,2.6-14.8c1.7-4.6,4.2-8.6,7.5-12.2,3.3-3.5,7.3-6.3,12-8.3,4.7-2,10-3,15.8-3s11.4,1,16.1,3c4.7,2,8.7,4.8,12,8.3,3.3,3.5,5.9,7.6,7.6,12.2,1.8,4.6,2.6,9.5,2.6,14.8s-.9,9.9-2.6,14.4c-1.8,4.5-4.3,8.6-7.6,12.2-3.3,3.6-7.3,6.4-12,8.4-4.7,2.1-10,3.1-15.9,3.1ZM369.2,70.1c0,4.2.8,7.9,2.5,11.3,1.7,3.3,4,5.9,6.9,7.8,2.9,1.9,6.1,2.8,9.7,2.8s6.7-1,9.6-2.9c2.9-1.9,5.2-4.5,6.9-7.8,1.7-3.3,2.6-7.1,2.6-11.4s-.9-7.9-2.6-11.2c-1.7-3.3-4-5.9-6.9-7.8-2.9-1.9-6.1-2.9-9.7-2.9s-6.7,1-9.6,2.9c-2.9,1.9-5.1,4.5-6.8,7.8s-2.5,7.1-2.5,11.4Z"/>
  <path class="cls-1" d="M481.6,48.8c-5.7,0-10.8,1.2-15.3,3.3-4.4,2.1-7.7,5.3-9.7,9.4v45.2h-18.5V33h17.1v15.2c2.6-5.1,5.9-9.1,9.9-12.1,4-2.9,8.3-4.5,12.7-4.8.9,0,1.7.1,2.2,0,.6,0,1.1,0,1.5.2v17.2Z"/>
  <path class="cls-1" d="M534.9,103c-1.7.8-3.6,1.5-5.8,2.3-2.2.8-4.5,1.5-7.1,2-2.5.5-5.1.8-7.7.8s-6.7-.6-9.6-1.8c-2.9-1.2-5.2-3.2-6.9-5.8-1.7-2.7-2.6-6.2-2.6-10.5v-42.5h-9.5v-14.5h9.5V8.8h18.8v24.2h15.3v14.5h-15.3v36c0,2.5.8,4.4,2.1,5.5,1.3,1.2,3,1.8,5,1.8s3.7-.4,5.6-1.1c1.9-.7,3.4-1.3,4.6-1.9l3.6,15.2Z"/>
  <path class="cls-1" d="M574.2,55.4c0-6.1,1-12.1,3.1-18,2.1-5.9,5.1-11.3,9.1-16.2,4-4.9,8.9-8.8,14.7-11.7,5.8-2.9,12.4-4.4,19.8-4.4s16.3,2.1,22.5,6.2c6.2,4.1,10.8,9.4,13.9,15.8l-5.8,3.4c-2.3-4.6-5.2-8.3-8.5-11.1-3.4-2.7-7-4.7-10.9-5.9-3.9-1.2-7.8-1.8-11.7-1.8-6.2,0-11.7,1.3-16.6,3.8-4.9,2.6-9,6-12.3,10.2-3.3,4.3-5.9,9-7.6,14.2-1.7,5.2-2.6,10.5-2.6,15.8s1,11.6,3.1,17c2,5.4,4.8,10.1,8.4,14.3,3.6,4.2,7.7,7.5,12.5,9.9,4.8,2.5,9.9,3.7,15.5,3.7s8-.7,12.2-2.1c4.1-1.4,8-3.5,11.6-6.4,3.6-2.9,6.5-6.7,8.8-11.3l6.1,3c-2.1,5-5.3,9.3-9.6,12.8-4.3,3.5-9,6.2-14.2,8-5.2,1.8-10.3,2.7-15.4,2.7s-12.8-1.5-18.5-4.5c-5.7-3-10.5-7-14.7-11.9-4.1-5-7.3-10.6-9.5-16.8-2.2-6.2-3.3-12.5-3.3-18.8Z"/>
  <path class="cls-1" d="M674.7,3h7.1v89.6c0,3.4.7,5.8,2.1,7.1,1.4,1.3,3.2,1.9,5.4,1.9s3-.1,4.6-.4c1.6-.3,3-.7,4.2-1.1l1.4,5.8c-1.6.6-3.5,1.1-5.8,1.6-2.3.5-4.3.7-6,.7-3.9,0-7-1.2-9.4-3.6s-3.5-5.7-3.5-9.8V3Z"/>
  <path class="cls-1" d="M709.4,16.1V3h7v13.1h-7ZM709.4,106.7V32.8h7v73.9h-7Z"/>
  <path class="cls-1" d="M796.6,106.7h-7v-41c0-9.4-1.3-16.3-4-20.7-2.6-4.4-6.8-6.6-12.6-6.6s-8.1,1-12,3c-3.9,2-7.4,4.7-10.3,8.1s-5,7.3-6.3,11.7v45.6h-7V33h6.5v17.7c1.9-3.8,4.5-7.1,7.8-9.8,3.2-2.8,6.9-5,10.8-6.6,4-1.6,8.1-2.4,12.4-2.4s7.3.7,10.1,2.2c2.7,1.5,5,3.6,6.7,6.3,1.7,2.7,2.9,6.1,3.7,10.2.7,4.1,1.1,8.7,1.1,13.9v42.3Z"/>
  <path class="cls-1" d="M816.9,16.1V3h7v13.1h-7ZM816.9,106.7V32.8h7v73.9h-7Z"/>
  <path class="cls-1" d="M875.7,108.1c-5,0-9.7-1-14-3-4.4-2-8.2-4.8-11.4-8.4-3.2-3.5-5.8-7.6-7.6-12.2-1.8-4.6-2.7-9.6-2.7-14.9s1.5-13.4,4.6-19.1c3.1-5.7,7.3-10.2,12.6-13.6,5.4-3.4,11.5-5.1,18.3-5.1s12.4,1.5,17.4,4.6c5,3.1,8.8,7.3,11.3,12.6l-6.8,2.3c-2.1-4.1-5.2-7.3-9.1-9.6-3.9-2.3-8.3-3.5-13-3.5s-10.1,1.4-14.3,4.1c-4.3,2.7-7.7,6.5-10.2,11.2-2.5,4.8-3.8,10.1-3.8,16.1s1.3,11.2,3.9,16.1c2.6,4.9,6,8.8,10.4,11.7,4.3,2.9,9.1,4.3,14.2,4.3s6.6-.6,9.8-1.9c3.2-1.3,6-3,8.3-5,2.4-2.1,3.9-4.3,4.7-6.7l6.8,2c-1.2,3.5-3.3,6.6-6.3,9.3-3,2.7-6.4,4.8-10.4,6.4-3.9,1.6-8.2,2.3-12.7,2.3Z"/>
</svg>